<svg xmlns="http://www.w3.org/2000/svg" aria-hidden="true" overflow="hidden" style="position:absolute;width:0;height:0">
  <defs>
    <symbol id="icon-shop" viewBox="0 0 31 32">
      <path d="M1.467 12.878h28.293v-2.081h-28.293v2.081zM29.142 12.26v0.914h2.081v-0.914h-2.081zM25.783 29.528h-20.338v2.081h20.338v-2.081zM2.085 13.174v-0.914h-2.081v0.914h2.081zM6.031 29.891c-2.595-5.19-3.946-10.914-3.946-16.717h-2.081c0 6.127 1.426 12.169 4.167 17.649l1.861-0.932zM5.444 29.528c0.25 0 0.477 0.142 0.587 0.362l-1.861 0.932c0.119 0.236 0.3 0.435 0.525 0.574s0.484 0.213 0.748 0.213v-2.081zM25.196 29.891c0.055-0.109 0.138-0.201 0.242-0.265s0.223-0.098 0.345-0.098v2.081c0.541 0 1.032-0.304 1.274-0.787l-1.861-0.932zM29.142 13.174c0 5.803-1.353 11.526-3.946 16.717l1.861 0.932c2.74-5.48 4.167-11.523 4.167-17.649h-2.081zM29.76 12.878c-0.164 0-0.321-0.065-0.437-0.181s-0.181-0.273-0.181-0.437h2.081c0-0.388-0.154-0.76-0.429-1.035s-0.647-0.429-1.035-0.429v2.081zM1.467 10.797c-0.388 0-0.76 0.154-1.035 0.429s-0.429 0.647-0.429 1.035h2.081c0 0.164-0.065 0.321-0.181 0.437s-0.273 0.181-0.437 0.181v-2.081zM8.181 12.372l6.244-10.406-1.788-1.070-6.244 10.407 1.788 1.070zM16.802 1.966l6.244 10.406 1.786-1.070-6.244-10.407-1.786 1.070zM10.41 21.203h10.406v-2.081h-10.406v2.081z"></path>
    </symbol>
    <symbol id="icon-arrow" viewBox="0 0 82 32">
      <path d="M81.414 17.414c0.781-0.781 0.781-2.047 0-2.828l-12.728-12.728c-0.781-0.781-2.047-0.781-2.828 0s-0.781 2.047 0 2.828l11.314 11.314-11.314 11.314c-0.781 0.781-0.781 2.047 0 2.828s2.047 0.781 2.828 0l12.728-12.728zM0 18h80v-4h-80v4z"></path>
    </symbol>
    <symbol id="icon-carousel-button" viewBox="0 0 34 32">
      <path d="M0.586 17.414c-0.781-0.781-0.781-2.047 0-2.828l12.728-12.728c0.781-0.781 2.047-0.781 2.828 0s0.781 2.047 0 2.828l-11.314 11.314 11.314 11.314c0.781 0.781 0.781 2.047 0 2.828s-2.047 0.781-2.828 0l-12.728-12.728zM34 18h-32v-4h32v4z"></path>
    </symbol>
    <symbol id="icon-instagram" viewBox="0 0 32 32">
      <path d="M16 24c-4.418 0-8-3.582-8-8s3.582-8 8-8c4.418 0 8 3.582 8 8s-3.582 8-8 8zM16 21.333c2.945 0 5.333-2.388 5.333-5.333s-2.388-5.333-5.333-5.333c-2.946 0-5.333 2.388-5.333 5.333s2.388 5.333 5.333 5.333z"></path>
      <path d="M24 6.667c-0.736 0-1.333 0.597-1.333 1.333s0.597 1.333 1.333 1.333c0.736 0 1.333-0.597 1.333-1.333s-0.597-1.333-1.333-1.333z"></path>
      <path d="M2.205 5.701c0.767-1.505 1.991-2.729 3.496-3.496 1.711-0.872 3.951-0.872 8.432-0.872h3.733c4.48 0 6.721 0 8.432 0.872 1.505 0.767 2.729 1.991 3.496 3.496 0.872 1.711 0.872 3.951 0.872 8.432v3.733c0 4.48 0 6.721-0.872 8.432-0.767 1.505-1.991 2.729-3.496 3.496-1.711 0.872-3.951 0.872-8.432 0.872h-3.733c-4.48 0-6.721 0-8.432-0.872-1.505-0.767-2.729-1.991-3.496-3.496-0.872-1.711-0.872-3.951-0.872-8.432v-3.733c0-4.48 0-6.721 0.872-8.432zM17.867 4h-3.733c-2.284 0-3.837 0.002-5.037 0.1-1.169 0.096-1.767 0.269-2.184 0.481-1.004 0.511-1.819 1.327-2.331 2.331-0.213 0.417-0.386 1.015-0.481 2.184-0.098 1.2-0.1 2.753-0.1 5.037v3.733c0 2.284 0.002 3.837 0.1 5.037 0.096 1.169 0.269 1.767 0.481 2.184 0.511 1.003 1.327 1.819 2.331 2.331 0.417 0.213 1.015 0.386 2.184 0.481 1.2 0.098 2.753 0.1 5.037 0.1h3.733c2.284 0 3.837-0.002 5.037-0.1 1.169-0.095 1.767-0.269 2.184-0.481 1.003-0.511 1.819-1.327 2.331-2.331 0.213-0.417 0.386-1.015 0.481-2.184 0.098-1.2 0.1-2.753 0.1-5.037v-3.733c0-2.284-0.002-3.837-0.1-5.037-0.095-1.169-0.269-1.767-0.481-2.184-0.511-1.004-1.327-1.819-2.331-2.331-0.417-0.213-1.015-0.386-2.184-0.481-1.2-0.098-2.753-0.1-5.037-0.1z"></path>
    </symbol>
    <symbol id="icon-facebook" viewBox="0 0 32 32">
      <path d="M31.294 16c0-3.025-0.897-5.982-2.578-8.497s-4.069-4.475-6.864-5.633c-2.795-1.158-5.87-1.46-8.837-0.87s-5.692 2.047-7.831 4.186c-2.139 2.139-3.596 4.864-4.186 7.831s-0.287 6.042 0.87 8.837c1.158 2.795 3.118 5.183 5.633 6.864s5.472 2.578 8.497 2.578c4.055-0.004 7.943-1.616 10.81-4.484s4.48-6.755 4.484-10.81zM17.176 28.882v-9.353h3.529c0.312 0 0.611-0.124 0.832-0.345s0.345-0.52 0.345-0.832c0-0.312-0.124-0.611-0.345-0.832s-0.52-0.345-0.832-0.345h-3.529v-3.529c0-0.624 0.248-1.223 0.689-1.664s1.040-0.689 1.664-0.689h2.353c0.312 0 0.611-0.124 0.832-0.345s0.345-0.52 0.345-0.832c0-0.312-0.124-0.611-0.345-0.832s-0.52-0.345-0.832-0.345h-2.353c-1.247 0.004-2.442 0.501-3.323 1.383s-1.379 2.076-1.383 3.323v3.529h-3.529c-0.312 0-0.611 0.124-0.832 0.345s-0.345 0.52-0.345 0.832c0 0.312 0.124 0.611 0.345 0.832s0.52 0.345 0.832 0.345h3.529v9.353c-3.317-0.303-6.389-1.872-8.577-4.382s-3.326-5.767-3.174-9.094c0.152-3.327 1.58-6.467 3.988-8.768s5.61-3.585 8.94-3.585c3.33 0 6.532 1.284 8.94 3.585s3.836 5.441 3.988 8.768c0.152 3.327-0.985 6.584-3.174 9.094s-5.261 4.080-8.577 4.382z"></path>
    </symbol>
    <symbol id="icon-modal-close-button" viewBox="0 0 32 32">
      <path d="M31.708 25.708c-0-0-0-0-0-0l-9.708-9.708 9.708-9.708c0-0 0-0 0-0 0.105-0.105 0.18-0.227 0.229-0.357 0.133-0.356 0.057-0.771-0.229-1.057l-4.586-4.586c-0.286-0.286-0.702-0.361-1.057-0.229-0.13 0.048-0.252 0.124-0.357 0.228 0 0-0 0-0 0l-9.708 9.708-9.708-9.708c-0-0-0-0-0-0-0.105-0.104-0.227-0.18-0.357-0.228-0.356-0.133-0.771-0.057-1.057 0.229l-4.586 4.586c-0.286 0.286-0.361 0.702-0.229 1.057 0.049 0.13 0.124 0.252 0.229 0.357 0 0 0 0 0 0l9.708 9.708-9.708 9.708c-0 0-0 0-0 0-0.104 0.105-0.18 0.227-0.229 0.357-0.133 0.355-0.057 0.771 0.229 1.057l4.586 4.586c0.286 0.286 0.702 0.361 1.057 0.229 0.13-0.049 0.252-0.124 0.357-0.229 0-0 0-0 0-0l9.708-9.708 9.708 9.708c0 0 0 0 0 0 0.105 0.105 0.227 0.18 0.357 0.229 0.356 0.133 0.771 0.057 1.057-0.229l4.586-4.586c0.286-0.286 0.362-0.702 0.229-1.057-0.049-0.13-0.124-0.252-0.229-0.357z"></path>
    </symbol>
  </defs>
</svg>
